<?xml version="1.0" encoding="UTF-8"?>
<!DOCTYPE svg PUBLIC "-//W3C//DTD SVG 1.1//EN" "http://www.w3.org/Graphics/SVG/1.1/DTD/svg11.dtd">
<!-- Creator: CorelDRAW 2018 (64-Bit) -->
<svg xmlns="http://www.w3.org/2000/svg" xml:space="preserve" width="400px" height="400px" version="1.1" style="shape-rendering:geometricPrecision; text-rendering:geometricPrecision; image-rendering:optimizeQuality; fill-rule:evenodd; clip-rule:evenodd"
viewBox="0 0 400 400"
 xmlns:xlink="http://www.w3.org/1999/xlink">
 <defs>
  <style type="text/css">
   <![CDATA[
    .fil0 {fill:white}
   ]]>
  </style>
 </defs>
 <g id="Слой_x0020_1">
  <metadata id="CorelCorpID_0Corel-Layer"/>
  <path class="fil0" d="M200 0c-110.456,0 -200,89.543 -200,200 0,110.457 89.544,200 200,200 110.457,0 200,-89.543 200,-200 0,-110.457 -89.543,-200 -200,-200zm0 34.53c-91.386,0 -165.469,74.083 -165.469,165.47 0,91.386 74.083,165.47 165.469,165.47 91.387,0 165.471,-74.084 165.471,-165.47 0,-91.387 -74.084,-165.47 -165.471,-165.47zm51.934 69.118l-21.99 -21.99 -119.447 119.447 119.447 119.447 21.99 -21.99 -97.457 -97.457 97.457 -97.457z"/>
 </g>
</svg>
