<?xml version="1.0" encoding="UTF-8"?>
<!DOCTYPE svg PUBLIC "-//W3C//DTD SVG 1.1//EN" "http://www.w3.org/Graphics/SVG/1.1/DTD/svg11.dtd">
<!-- Creator: CorelDRAW 2018 (64-Bit) -->
<svg xmlns="http://www.w3.org/2000/svg" xml:space="preserve" width="358px" height="101px" version="1.1" style="shape-rendering:geometricPrecision; text-rendering:geometricPrecision; image-rendering:optimizeQuality; fill-rule:evenodd; clip-rule:evenodd"
viewBox="0 0 358 101"
 xmlns:xlink="http://www.w3.org/1999/xlink">
 <defs>
  <style type="text/css">
   <![CDATA[
    .fil0 {fill:#F9F9FA;fill-rule:nonzero}
   ]]>
  </style>
 </defs>
 <g id="Слой_x0020_1">
  <metadata id="CorelCorpID_0Corel-Layer"/>
  <g id="_1702432961024">
   <path class="fil0" d="M20.996 37.867l14.781 0 -5.554 -17.997c-0.165,-0.546 -0.407,-1.423 -0.699,-2.644 -0.305,-1.22 -0.686,-2.783 -1.157,-4.689 -0.317,1.334 -0.635,2.618 -0.953,3.838 -0.305,1.207 -0.622,2.377 -0.94,3.495l-5.478 17.997zm-20.832 20.362l18.824 -54.526 18.619 0 18.837 54.526 -14.782 0 -2.758 -9.761 -21.111 0 -2.835 9.761 -14.794 0zm99.15 -37.596l0 19.192c0,4.245 -0.343,7.397 -1.029,9.443 -0.674,2.047 -1.83,3.864 -3.445,5.453 -1.664,1.665 -3.736,2.91 -6.215,3.724 -2.491,0.826 -5.401,1.233 -8.757,1.233 -3.33,0 -6.228,-0.407 -8.693,-1.233 -2.479,-0.814 -4.576,-2.059 -6.317,-3.724 -1.614,-1.538 -2.758,-3.343 -3.432,-5.414 -0.673,-2.072 -1.004,-5.237 -1.004,-9.482l0 -19.192 12.659 0 0 20.056c0,3.14 0.521,5.414 1.564,6.825 1.042,1.398 2.732,2.098 5.071,2.098 2.364,0 4.054,-0.687 5.084,-2.059 1.029,-1.386 1.55,-3.674 1.55,-6.864l0 -20.056 12.964 0zm11.579 37.596l0 -28.216 -5.643 0 0 -9.38 5.643 0 0 -11.21 13.041 0 0 11.21 5.643 0 0 9.38 -5.643 0 0 28.216 -13.041 0zm51.552 -18.709c0,-2.796 -0.711,-5.008 -2.122,-6.622 -1.411,-1.614 -3.33,-2.428 -5.732,-2.428 -2.428,0 -4.347,0.814 -5.758,2.428 -1.398,1.614 -2.097,3.826 -2.097,6.622 0,2.809 0.699,5.02 2.084,6.622 1.386,1.601 3.317,2.402 5.771,2.402 2.427,0 4.347,-0.801 5.757,-2.402 1.398,-1.602 2.097,-3.813 2.097,-6.622zm13.193 0c0,2.707 -0.534,5.287 -1.588,7.715 -1.055,2.44 -2.581,4.626 -4.601,6.558 -2.034,1.932 -4.309,3.406 -6.826,4.398 -2.529,0.991 -5.198,1.487 -8.032,1.487 -2.886,0 -5.58,-0.496 -8.097,-1.487 -2.529,-0.992 -4.779,-2.466 -6.761,-4.398 -1.996,-1.894 -3.508,-4.054 -4.551,-6.495 -1.042,-2.453 -1.563,-5.046 -1.563,-7.778 0,-2.746 0.521,-5.338 1.551,-7.779 1.029,-2.427 2.542,-4.613 4.563,-6.558 1.957,-1.906 4.194,-3.355 6.723,-4.322 2.517,-0.966 5.224,-1.448 8.135,-1.448 2.91,0 5.618,0.482 8.121,1.448 2.504,0.967 4.754,2.416 6.737,4.322 2.046,1.97 3.584,4.169 4.626,6.596 1.042,2.428 1.563,5.021 1.563,7.741zm10.969 1.093c2.211,2.504 4.385,4.372 6.533,5.618 2.148,1.233 4.283,1.855 6.418,1.855 1.983,0 3.623,-0.533 4.894,-1.601 1.284,-1.068 1.919,-2.415 1.919,-4.054 0,-1.805 -0.547,-3.204 -1.652,-4.182 -1.106,-0.979 -3.597,-1.996 -7.487,-3.038 -5.338,-1.436 -9.125,-3.317 -11.337,-5.618 -2.211,-2.313 -3.317,-5.478 -3.317,-9.494 0,-5.224 1.741,-9.469 5.236,-12.761 3.483,-3.292 8.02,-4.931 13.575,-4.931 3.012,0 5.859,0.406 8.554,1.207 2.694,0.814 5.249,2.034 7.664,3.673l-4.665 10.677c-1.691,-1.436 -3.419,-2.517 -5.198,-3.254 -1.767,-0.725 -3.521,-1.093 -5.262,-1.093 -1.78,0 -3.229,0.432 -4.347,1.283 -1.119,0.852 -1.678,1.958 -1.678,3.292 0,1.36 0.483,2.454 1.462,3.28 0.978,0.813 2.872,1.601 5.668,2.338l0.674 0.191c6.063,1.64 10.054,3.432 11.96,5.402 1.297,1.334 2.275,2.948 2.949,4.817 0.673,1.881 1.004,3.952 1.004,6.24 0,5.783 -1.894,10.435 -5.694,13.943 -3.8,3.521 -8.872,5.275 -15.201,5.275 -3.801,0 -7.258,-0.648 -10.384,-1.932 -3.114,-1.296 -6.114,-3.317 -8.986,-6.075l6.698 -11.058zm43.023 17.616l0 -28.216 -5.643 0 0 -9.38 5.643 0 0 -11.21 13.041 0 0 11.21 5.643 0 0 9.38 -5.643 0 0 28.216 -13.041 0zm22.815 16.625l10.574 -22.345 -15.163 -31.876 14.718 0 5.25 13.587c0.445,1.144 0.813,2.198 1.118,3.177 0.292,0.992 0.521,1.894 0.661,2.746 0.153,-0.903 0.369,-1.818 0.648,-2.784 0.293,-0.953 0.661,-1.995 1.106,-3.139l5.326 -13.587 14.184 0 -23.641 54.221 -14.781 0zm43.01 -16.625l0 -57.729 13.269 0 0 57.729 -13.269 0zm49.34 -23.641c-0.254,-2.135 -1.067,-3.851 -2.44,-5.147 -1.385,-1.297 -3.075,-1.945 -5.096,-1.945 -2.161,0 -3.89,0.585 -5.173,1.767 -1.271,1.182 -2.123,2.961 -2.555,5.325l15.264 0zm13.041 7.474l-28.597 0c0.025,2.898 0.775,5.134 2.237,6.711 1.474,1.576 3.546,2.364 6.228,2.364 2.02,0 3.711,-0.382 5.096,-1.132 1.373,-0.762 2.428,-1.881 3.152,-3.368l9.978 4.017c-1.195,2.885 -3.305,5.109 -6.33,6.672 -3.038,1.564 -6.749,2.352 -11.147,2.352 -6.558,0 -11.82,-1.818 -15.773,-5.453 -3.965,-3.647 -5.948,-8.439 -5.948,-14.4 0,-5.86 1.983,-10.728 5.935,-14.604 3.966,-3.876 8.974,-5.808 15.024,-5.808 6.228,0 11.146,1.957 14.743,5.885 3.597,3.927 5.402,9.303 5.402,16.128l0 0.636z"/>
   <path class="fil0" d="M7.76 100.113l0 -11.103 -4.093 0 0 -3.437 13.174 0 0 3.437 -4.093 0 0 11.103 -4.988 0zm19.42 -14.54l4.963 0 0 7.074c0,1.037 0.034,1.786 0.098,2.237 0.068,0.454 0.179,0.833 0.341,1.138 0.187,0.37 0.524,0.655 0.998,0.851 0.473,0.193 1.053,0.292 1.735,0.292 0.682,0 1.257,-0.099 1.731,-0.292 0.468,-0.196 0.806,-0.481 1.002,-0.851 0.162,-0.305 0.273,-0.684 0.341,-1.138 0.064,-0.451 0.098,-1.2 0.098,-2.237l0 -0.993 0 -6.081 4.962 0 0 7.687c0,1.596 -0.119,2.773 -0.362,3.532 -0.243,0.756 -0.648,1.403 -1.223,1.942 -0.623,0.586 -1.48,1.03 -2.571,1.325 -1.092,0.295 -2.413,0.441 -3.97,0.441 -1.569,0 -2.89,-0.146 -3.977,-0.441 -1.088,-0.295 -1.949,-0.739 -2.58,-1.325 -0.567,-0.539 -0.972,-1.186 -1.219,-1.942 -0.243,-0.759 -0.367,-1.936 -0.367,-3.532l0 -1.508 0 -6.179zm28.058 14.54l0 -14.54 4.81 0 6.915 7.477c0.132,0.152 0.349,0.461 0.652,0.922 0.307,0.458 0.64,1.006 1.006,1.644 -0.098,-0.604 -0.17,-1.139 -0.217,-1.61 -0.047,-0.471 -0.069,-0.888 -0.069,-1.251l0 -7.182 4.785 0 0 14.54 -4.785 0 -6.91 -7.507c-0.146,-0.153 -0.367,-0.461 -0.67,-0.918 -0.307,-0.462 -0.635,-1.004 -0.993,-1.627 0.098,0.61 0.17,1.148 0.217,1.62 0.047,0.471 0.069,0.888 0.069,1.25l0 7.182 -4.81 0zm29.93 0l0 -14.54 5.04 0 0 14.54 -5.04 0zm17.058 0l0 -14.54 4.81 0 6.915 7.477c0.132,0.152 0.35,0.461 0.653,0.922 0.306,0.458 0.639,1.006 1.005,1.644 -0.098,-0.604 -0.17,-1.139 -0.217,-1.61 -0.047,-0.471 -0.068,-0.888 -0.068,-1.251l0 -7.182 4.784 0 0 14.54 -4.784 0 -6.911 -7.507c-0.145,-0.153 -0.367,-0.461 -0.67,-0.918 -0.307,-0.462 -0.635,-1.004 -0.993,-1.627 0.098,0.61 0.17,1.148 0.217,1.62 0.047,0.471 0.069,0.888 0.069,1.25l0 7.182 -4.81 0zm38.5 -5.348l0 -3.05 9.798 0c0.008,0.098 0.017,0.21 0.021,0.328 0.004,0.119 0.004,0.292 0.004,0.526 0,2.501 -0.831,4.44 -2.494,5.819 -1.658,1.379 -3.999,2.071 -7.014,2.071 -1.479,0 -2.801,-0.176 -3.951,-0.532 -1.156,-0.353 -2.184,-0.895 -3.092,-1.624 -0.865,-0.694 -1.539,-1.515 -2.021,-2.467 -0.477,-0.949 -0.716,-1.942 -0.716,-2.982 0,-1.085 0.234,-2.085 0.699,-2.993 0.465,-0.912 1.164,-1.729 2.085,-2.458 0.917,-0.708 1.97,-1.243 3.155,-1.61 1.19,-0.362 2.469,-0.545 3.841,-0.545 1.791,0 3.377,0.281 4.754,0.844 1.378,0.562 2.537,1.4 3.479,2.511l-4.323 1.648c-0.516,-0.563 -1.1,-0.98 -1.744,-1.254 -0.648,-0.275 -1.368,-0.414 -2.17,-0.414 -1.492,0 -2.669,0.397 -3.526,1.186 -0.856,0.793 -1.287,1.871 -1.287,3.244 0,1.383 0.431,2.47 1.287,3.264 0.857,0.796 2.034,1.193 3.526,1.193 1.266,0 2.324,-0.248 3.168,-0.739 0.848,-0.492 1.343,-1.146 1.484,-1.966l-4.963 0zm50.135 -8.622l0 4.331c-0.683,-0.603 -1.364,-1.044 -2.042,-1.325 -0.678,-0.281 -1.408,-0.424 -2.179,-0.424 -1.433,0 -2.592,0.39 -3.479,1.166 -0.887,0.776 -1.33,1.79 -1.33,3.04 0,1.166 0.452,2.132 1.356,2.898 0.904,0.77 2.055,1.153 3.453,1.153 0.771,0 1.501,-0.14 2.179,-0.421 0.678,-0.278 1.359,-0.722 2.042,-1.328l0 4.331c-0.789,0.305 -1.578,0.536 -2.358,0.688 -0.784,0.153 -1.573,0.227 -2.375,0.227 -0.997,0 -1.918,-0.095 -2.763,-0.281 -0.844,-0.19 -1.62,-0.478 -2.327,-0.861 -1.365,-0.729 -2.405,-1.644 -3.121,-2.748 -0.716,-1.109 -1.075,-2.353 -1.075,-3.735 0,-1.112 0.226,-2.122 0.682,-3.034 0.452,-0.912 1.139,-1.735 2.051,-2.478 0.866,-0.708 1.842,-1.237 2.929,-1.589 1.088,-0.349 2.294,-0.525 3.624,-0.525 0.802,0 1.591,0.074 2.375,0.227 0.78,0.152 1.569,0.383 2.358,0.688zm29.597 6.731c0,1.047 -0.243,2.027 -0.724,2.938 -0.482,0.915 -1.185,1.732 -2.111,2.454 -0.934,0.715 -1.999,1.264 -3.197,1.654 -1.199,0.386 -2.443,0.58 -3.731,0.58 -1.309,0 -2.562,-0.194 -3.756,-0.58 -1.194,-0.39 -2.243,-0.939 -3.151,-1.654 -0.942,-0.722 -1.654,-1.542 -2.145,-2.464 -0.486,-0.918 -0.729,-1.894 -0.729,-2.928 0,-1.041 0.243,-2.017 0.729,-2.935 0.491,-0.916 1.203,-1.736 2.145,-2.458 0.908,-0.715 1.957,-1.264 3.151,-1.654 1.194,-0.386 2.447,-0.579 3.756,-0.579 1.296,0 2.549,0.193 3.752,0.579 1.202,0.39 2.259,0.939 3.176,1.654 0.917,0.715 1.616,1.532 2.106,2.454 0.486,0.919 0.729,1.898 0.729,2.939zm-9.772 4.27c1.382,0 2.524,-0.403 3.428,-1.21 0.904,-0.81 1.356,-1.83 1.356,-3.06 0,-1.217 -0.456,-2.234 -1.373,-3.05 -0.916,-0.814 -2.055,-1.221 -3.411,-1.221 -1.381,0 -2.524,0.407 -3.427,1.217 -0.904,0.81 -1.356,1.83 -1.356,3.054 0,1.243 0.443,2.267 1.334,3.067 0.891,0.803 2.042,1.203 3.449,1.203zm41.876 2.969l-4.659 0 -1.071 -6.287c-0.076,-0.444 -0.144,-0.935 -0.208,-1.481 -0.06,-0.542 -0.12,-1.136 -0.167,-1.776 -0.119,0.617 -0.345,1.383 -0.686,2.305 -0.077,0.19 -0.132,0.332 -0.167,0.427l-2.481 6.812 -3.325 0 -2.482 -6.812c-0.034,-0.095 -0.085,-0.237 -0.153,-0.427 -0.35,-0.922 -0.576,-1.685 -0.687,-2.295 -0.047,0.549 -0.106,1.095 -0.175,1.634 -0.063,0.539 -0.145,1.077 -0.234,1.613l-1.074 6.287 -4.634 0 2.822 -14.54 4.932 0 2.759 7.498c0.017,0.054 0.051,0.138 0.102,0.26 0.256,0.668 0.418,1.241 0.486,1.719 0.035,-0.261 0.094,-0.546 0.188,-0.861 0.09,-0.315 0.218,-0.695 0.375,-1.139l2.784 -7.477 4.946 0 2.809 14.54zm15.37 0l-4.681 0 0 -14.54 5.219 0c2.038,0 3.471,0.078 4.298,0.237 0.822,0.16 1.521,0.431 2.097,0.814 0.674,0.444 1.19,1 1.544,1.664 0.353,0.668 0.528,1.407 0.528,2.22 0,0.868 -0.175,1.63 -0.524,2.288 -0.349,0.661 -0.866,1.2 -1.548,1.623 -0.515,0.319 -1.125,0.546 -1.824,0.685 -0.7,0.139 -1.821,0.21 -3.36,0.21l-0.848 0 -0.901 0 0 4.799zm0 -7.992l0.951 0c1.198,0 2.034,-0.132 2.507,-0.393 0.474,-0.261 0.713,-0.705 0.713,-1.335 0,-0.61 -0.235,-1.044 -0.7,-1.302 -0.464,-0.257 -1.292,-0.386 -2.473,-0.386l-0.998 0 0 3.416zm23.105 2.563l4.958 0 -1.863 -4.8c-0.056,-0.146 -0.136,-0.379 -0.235,-0.705 -0.102,-0.325 -0.23,-0.742 -0.388,-1.25 -0.106,0.356 -0.213,0.698 -0.319,1.023 -0.103,0.322 -0.21,0.634 -0.316,0.932l-1.837 4.8zm-6.988 5.429l6.314 -14.54 6.246 0 6.319 14.54 -4.959 0 -0.925 -2.603 -7.082 0 -0.95 2.603 -4.963 0zm28.629 0l0 -14.54 4.81 0 6.915 7.477c0.132,0.152 0.349,0.461 0.652,0.922 0.307,0.458 0.639,1.006 1.006,1.644 -0.098,-0.604 -0.17,-1.139 -0.217,-1.61 -0.047,-0.471 -0.069,-0.888 -0.069,-1.251l0 -7.182 4.784 0 0 14.54 -4.784 0 -6.911 -7.507c-0.145,-0.153 -0.366,-0.461 -0.669,-0.918 -0.307,-0.462 -0.635,-1.004 -0.993,-1.627 0.098,0.61 0.17,1.148 0.217,1.62 0.047,0.471 0.069,0.888 0.069,1.25l0 7.182 -4.81 0zm33.051 0l0 -6.636 -6.395 -7.904 5.721 0 2.461 3.746c0.017,0.02 0.042,0.054 0.076,0.108 0.256,0.39 0.435,0.766 0.537,1.122 0.081,-0.326 0.26,-0.685 0.537,-1.082 0.048,-0.074 0.081,-0.122 0.098,-0.148l2.435 -3.746 5.734 0 -6.395 7.904 0 6.636 -4.809 0z"/>
  </g>
 </g>
</svg>
