<?xml version="1.0" encoding="UTF-8"?>
<!DOCTYPE svg PUBLIC "-//W3C//DTD SVG 1.1//EN" "http://www.w3.org/Graphics/SVG/1.1/DTD/svg11.dtd">
<!-- Creator: CorelDRAW 2018 (64-Bit) -->
<svg xmlns="http://www.w3.org/2000/svg" xml:space="preserve" width="200px" height="200px" version="1.1" style="shape-rendering:geometricPrecision; text-rendering:geometricPrecision; image-rendering:optimizeQuality; fill-rule:evenodd; clip-rule:evenodd"
viewBox="0 0 200 200"
 xmlns:xlink="http://www.w3.org/1999/xlink">
 <defs>
  <style type="text/css">
   <![CDATA[
    .fil0 {fill:#CCCCCC}
   ]]>
  </style>
 </defs>
 <g id="Слой_x0020_1">
  <metadata id="CorelCorpID_0Corel-Layer"/>
  <path class="fil0" d="M35.108 0l129.783 0c19.31,0 35.109,15.798 35.109,35.108l0 129.783c0,19.31 -15.799,35.109 -35.109,35.109l-129.783 0c-19.31,0 -35.108,-15.799 -35.108,-35.109l0 -129.783c0,-19.31 15.798,-35.108 35.108,-35.108zm126.904 25.222c6.344,0 11.487,5.144 11.487,11.488 0,6.345 -5.143,11.488 -11.487,11.488 -6.345,0 -11.488,-5.143 -11.488,-11.488 0,-6.344 5.143,-11.488 11.488,-11.488zm-114.288 127.794l-0.422 -105.326 82.7 0c0,0 20.252,-0.517 20.674,29.429 0.422,29.946 0,16.006 0,16.006 0,0 0,23.234 -17.721,25.299l20.448 34.53 -24.894 0 -18.338 -34.014 -41.35 -0.516 0 34.592 -21.097 0zm21.519 -81.576l53.164 0c0,0 5.907,-0.516 6.329,6.196 0.422,6.712 0.422,9.81 0.422,9.81 0,0 0.421,6.711 -5.064,7.228l-54.851 0 0 -23.234z"/>
 </g>
</svg>
