<?xml version="1.0" encoding="UTF-8"?>
<!DOCTYPE svg PUBLIC "-//W3C//DTD SVG 1.1//EN" "http://www.w3.org/Graphics/SVG/1.1/DTD/svg11.dtd">
<!-- Creator: CorelDRAW 2018 (64-Bit) -->
<svg xmlns="http://www.w3.org/2000/svg" xml:space="preserve" width="200px" height="200px" version="1.1" style="shape-rendering:geometricPrecision; text-rendering:geometricPrecision; image-rendering:optimizeQuality; fill-rule:evenodd; clip-rule:evenodd"
viewBox="0 0 200 200"
 xmlns:xlink="http://www.w3.org/1999/xlink">
 <defs>
  <style type="text/css">
   <![CDATA[
    .fil1 {fill:#8A8A8A}
    .fil2 {fill:#B5B5B5}
    .fil0 {fill:#CCCCCC}
   ]]>
  </style>
 </defs>
 <g id="Слой_x0020_1">
  <metadata id="CorelCorpID_0Corel-Layer"/>
  <g id="_1702228078240">
   <path class="fil0" d="M35.838 0l128.324 0c19.711,0 35.838,16.127 35.838,35.838l0 128.324c0,19.711 -16.127,35.838 -35.838,35.838l-128.324 0c-19.711,0 -35.838,-16.127 -35.838,-35.838l0 -128.324c0,-19.711 16.127,-35.838 35.838,-35.838zm67.552 38.364c33.923,0 61.424,27.5 61.424,61.424 0,33.923 -27.501,61.423 -61.424,61.423 -33.923,0 -61.424,-27.5 -61.424,-61.423 0,-33.924 27.501,-61.424 61.424,-61.424z"/>
   <path class="fil0" d="M98.06 84.479l31.303 -11.221c0,0 4.134,-2.363 3.543,2.952 -0.59,5.316 -10.631,48.431 -10.631,48.431 0,0 -0.59,5.906 -8.268,0 -7.678,-5.906 -20.081,-14.175 -20.081,-14.175 0,0 -1.181,-0.295 0.591,-2.657l26.282 -24.806 -0.886 -0.296 -34.551 20.967c0,0 0,1.181 -5.315,-0.295 -5.316,-1.477 -11.222,-3.544 -11.222,-3.544 0,0 -4.725,-1.476 1.181,-4.134 5.907,-2.658 28.054,-11.222 28.054,-11.222z"/>
   <path class="fil1" d="M102.786 116.667l-8.269 8.269 -0.886 0.591 -1.181 0 -0.296 -0.296c0,0 0.207,-13.731 1.182,-15.355l9.45 6.791z"/>
   <path class="fil2" d="M87.725 115.781l-3.839 -11.221 35.498 -21.532 1.415 -0.616 -0.492 1.055 -26.817 25.392 -0.154 0.721 -0.17 0.72 -1.012 14.931c0,0 -0.886,-0.59 -1.476,-1.476 -0.591,-0.886 -2.953,-7.974 -2.953,-7.974z"/>
  </g>
 </g>
</svg>
