<?xml version="1.0" encoding="UTF-8"?>
<!DOCTYPE svg PUBLIC "-//W3C//DTD SVG 1.1//EN" "http://www.w3.org/Graphics/SVG/1.1/DTD/svg11.dtd">
<!-- Creator: CorelDRAW 2018 (64-Bit) -->
<svg xmlns="http://www.w3.org/2000/svg" xml:space="preserve" width="400px" height="400px" version="1.1" style="shape-rendering:geometricPrecision; text-rendering:geometricPrecision; image-rendering:optimizeQuality; fill-rule:evenodd; clip-rule:evenodd"
viewBox="0 0 400 400"
 xmlns:xlink="http://www.w3.org/1999/xlink">
 <defs>
  <style type="text/css">
   <![CDATA[
    .fil0 {fill:#CCCCCC}
   ]]>
  </style>
 </defs>
 <g id="Слой_x0020_1">
  <metadata id="CorelCorpID_0Corel-Layer"/>
  <path class="fil0" d="M67.952 121.341l45.652 0c0,0 -2.926,92.608 61.454,114.881l0 -115.467 42.726 0 0 66.232c0,0 39.214,-1.172 63.796,-65.646l42.726 -0.586c0,0 -1.756,45.132 -57.943,83.23 0,0 56.772,28.72 67.892,83.816l-47.407 0c0,0 -16.388,-55.096 -68.478,-59.785l0 59.785c0,0 -149.833,11.136 -150.418,-166.46zm129.649 -121.341l88.671 0c0,0 45.642,1.185 68.468,14.08 22.827,12.895 37.907,38.609 41.555,67.991 3.649,29.382 3.649,145.435 3.649,145.435 0,0 1.619,94.876 -12.428,119.494 -14.046,24.617 -22.241,39.856 -71.99,48.648 0,0 -44.179,3.953 -103.877,3.953 -59.699,0 -157.743,6.597 -188.178,-33.845 -30.435,-40.443 -22.553,-134.441 -22.553,-161.989 0,-27.547 -3.2,-122.283 9.676,-146.314 12.877,-24.031 21.656,-45.131 70.819,-54.51 0,0 16.398,-2.943 116.188,-2.943z"/>
 </g>
</svg>
