<?xml version="1.0" encoding="UTF-8"?>
<!DOCTYPE svg PUBLIC "-//W3C//DTD SVG 1.1//EN" "http://www.w3.org/Graphics/SVG/1.1/DTD/svg11.dtd">
<!-- Creator: CorelDRAW 2018 (64-Bit) -->
<svg xmlns="http://www.w3.org/2000/svg" xml:space="preserve" width="200px" height="200px" version="1.1" style="shape-rendering:geometricPrecision; text-rendering:geometricPrecision; image-rendering:optimizeQuality; fill-rule:evenodd; clip-rule:evenodd"
viewBox="0 0 200 200"
 xmlns:xlink="http://www.w3.org/1999/xlink">
 <defs>
  <style type="text/css">
   <![CDATA[
    .fil0 {fill:#CCCCCC}
   ]]>
  </style>
 </defs>
 <g id="Слой_x0020_1">
  <metadata id="CorelCorpID_0Corel-Layer"/>
  <path class="fil0" d="M35.838 0l128.324 0c19.711,0 35.838,16.127 35.838,35.838l0 128.324c0,19.711 -16.127,35.838 -35.838,35.838l-128.324 0c-19.711,0 -35.838,-16.127 -35.838,-35.838l0 -128.324c0,-19.711 16.127,-35.838 35.838,-35.838zm65.942 58.943c0,0 33.35,1.011 34.866,1.011 1.516,0 10.107,0.505 14.149,3.537 4.043,3.032 5.902,7.702 7.075,14.654 1.172,6.953 1.01,33.099 0.505,37.646 -0.505,4.548 -1.011,14.401 -5.559,19.455 -4.547,5.053 -18.444,5.811 -28.297,5.811 -9.854,0 -50.531,-0.253 -50.531,-0.253 0,0 -19.202,0 -24.508,-3.79 -5.306,-3.79 -7.398,-9.844 -7.994,-22.987 -0.596,-13.143 -0.091,-31.586 1.425,-40.177 1.516,-8.59 7.074,-11.117 10.864,-12.633 3.79,-1.516 18.697,-2.021 20.466,-2.021 1.768,0 27.539,-0.253 27.539,-0.253zm-13.138 23.75l29.561 17.434 -29.561 17.433 0 -34.867z"/>
 </g>
</svg>
